<svg width="18" height="18" viewBox="0 0 18 18" fill="none" xmlns="http://www.w3.org/2000/svg">
<path d="M9 0.25C13.8325 0.25 17.75 4.16751 17.75 9V14.0908C17.75 14.5047 17.7499 14.8493 17.7324 15.1318C17.7145 15.4203 17.6759 15.6936 17.5762 15.9609C17.2974 16.7082 16.7082 17.2974 15.9609 17.5762C15.6936 17.6759 15.4203 17.7145 15.1318 17.7324C14.8493 17.7499 14.5047 17.75 14.0908 17.75H9C4.16751 17.75 0.25 13.8325 0.25 9C0.25 4.16751 4.16751 0.25 9 0.25ZM9 1.75C4.99594 1.75 1.75 4.99594 1.75 9C1.75 13.0041 4.99594 16.25 9 16.25H14.0908C14.5234 16.25 14.8138 16.2493 15.0391 16.2354C15.2582 16.2217 15.3658 16.1973 15.4365 16.1709C15.7762 16.0442 16.0442 15.7762 16.1709 15.4365C16.1973 15.3658 16.2217 15.2582 16.2354 15.0391C16.2493 14.8138 16.25 14.5234 16.25 14.0908V9C16.25 4.99594 13.0041 1.75 9 1.75ZM12 11.25C12.4142 11.25 12.75 11.5858 12.75 12C12.75 12.4142 12.4142 12.75 12 12.75H9C8.58579 12.75 8.25 12.4142 8.25 12C8.25 11.5858 8.58579 11.25 9 11.25H12ZM12 7.25C12.4142 7.25 12.75 7.58579 12.75 8C12.75 8.41421 12.4142 8.75 12 8.75H6C5.58579 8.75 5.25 8.41421 5.25 8C5.25 7.58579 5.58579 7.25 6 7.25H12Z" fill="white"/>
</svg>
