<svg width="26" height="29" viewBox="0 0 26 29" fill="none" xmlns="http://www.w3.org/2000/svg">
<path fill-rule="evenodd" clip-rule="evenodd" d="M13 0C14.2705 0 15.3696 0.462724 16.494 1.19421C17.5891 1.90676 18.8303 2.95865 20.3681 4.25721L22.0455 5.67412C23.6871 7.06036 24.8224 7.98282 25.4248 9.2729C26.0272 10.5632 25.9998 12.0131 25.9998 14.1433V21.1505C25.9998 22.673 26.0021 23.9396 25.8655 24.9413C25.7239 25.9787 25.4124 26.9159 24.6484 27.6686C23.8846 28.421 22.9343 28.7281 21.8817 28.8677C20.8649 29.0023 19.5779 29 18.0322 29H7.96782C6.4221 29 5.1351 29.0023 4.11833 28.8677C3.06575 28.7281 2.11532 28.421 1.35161 27.6686C0.587789 26.916 0.276077 25.9786 0.134513 24.9413C-0.00207665 23.9397 0.000190067 22.673 0.000190187 21.1505V14.1433C0.000189322 12.0131 -0.0271824 10.5632 0.575157 9.2729C1.17754 7.98275 2.31291 7.06036 3.95452 5.67412L5.63191 4.25721C7.1697 2.95864 8.41087 1.9068 9.50597 1.19421C10.6304 0.462678 11.7296 9.87538e-05 13 0ZM10.4839 19.0848C10.2525 19.085 10.0646 19.2699 10.0646 19.4979V26.5212H15.9354V19.4979C15.9354 19.2698 15.7477 19.0848 15.5161 19.0848H10.4839ZM13 2.4788C12.4094 2.47889 11.795 2.67538 10.8918 3.2631C9.959 3.87013 8.8555 4.79865 7.26835 6.1389L5.59096 7.55581C3.77499 9.0893 3.1803 9.62719 2.86192 10.309C2.54357 10.9909 2.51628 11.7863 2.51628 14.1433V21.1505C2.51628 22.7434 2.51876 23.8139 2.62767 24.6121C2.73171 25.3742 2.91211 25.7007 3.13056 25.916C3.3491 26.1313 3.68055 26.3089 4.45413 26.4115C5.19219 26.5092 6.1598 26.5168 7.54847 26.518V19.4979C7.54847 17.9009 8.8629 16.6062 10.4839 16.606H15.5161C17.1373 16.606 18.4515 17.9008 18.4515 19.4979V26.518C19.8404 26.5168 20.8077 26.5092 21.5459 26.4115C22.3196 26.309 22.6509 26.1313 22.8694 25.916C23.088 25.7007 23.2683 25.3745 23.3723 24.6121C23.4813 23.8139 23.4837 22.7434 23.4837 21.1505V14.1433C23.4837 11.7863 23.4565 10.9909 23.1381 10.309C22.8197 9.62728 22.2249 9.08924 20.409 7.55581L18.7316 6.1389C17.1445 4.79867 16.041 3.87009 15.1082 3.2631C14.2049 2.67541 13.5907 2.4788 13 2.4788Z" fill="white"/>
</svg>
