<svg width="26" height="26" viewBox="0 0 26 26" fill="none" xmlns="http://www.w3.org/2000/svg">
<path fill-rule="evenodd" clip-rule="evenodd" d="M15.6238 14C19.7297 14.0001 24.2636 15.8969 25.4813 20.4016C25.7041 21.226 25.8829 22.1216 25.9844 23.075C26.1621 24.7479 24.7976 26 23.3033 26H2.69672C1.20241 26 -0.16206 24.7479 0.0156379 23.075C0.117127 22.1216 0.295899 21.226 0.518728 20.4016C1.73636 15.8969 6.27029 14.0001 10.3762 14H15.6238ZM10.3762 16.4C6.77789 16.4001 3.62156 18.0351 2.81127 21.0328C2.61837 21.7465 2.4661 22.5167 2.37939 23.3313C2.37295 23.3929 2.38932 23.4458 2.43821 23.4969C2.49252 23.5536 2.58298 23.6 2.69672 23.6H23.3033C23.417 23.6 23.5075 23.5536 23.5618 23.4969C23.6107 23.4458 23.6271 23.3929 23.6206 23.3313C23.5339 22.5167 23.3816 21.7465 23.1887 21.0328C22.3784 18.0351 19.2221 16.4001 15.6238 16.4H10.3762Z" fill="white"/>
<path fill-rule="evenodd" clip-rule="evenodd" d="M13 0C16.5018 0 19.3405 2.86538 19.3405 6.4C19.3405 9.93462 16.5018 12.8 13 12.8C9.49827 12.8 6.65952 9.93461 6.65952 6.4C6.65952 2.8654 9.49827 2.84505e-05 13 0ZM13 2.4C10.8114 2.40003 9.0372 4.19088 9.0372 6.4C9.0372 8.60912 10.8114 10.4 13 10.4C15.1886 10.4 16.9628 8.60914 16.9628 6.4C16.9628 4.19086 15.1886 2.4 13 2.4Z" fill="white"/>
</svg>
