<svg width="28" height="30" viewBox="0 0 28 30" fill="none" xmlns="http://www.w3.org/2000/svg">
<path d="M2 10.9827C2 6.74821 2 4.63097 3.31802 3.31548C4.63604 2 6.75736 2 11 2H17C21.2426 2 23.364 2 24.682 3.31548C26 4.63097 26 6.74821 26 10.9827V21.2044C26 25.2216 26 27.2302 24.7336 27.8445C23.4671 28.4589 21.8847 27.2179 18.7198 24.736L17.7069 23.9417C15.9274 22.5462 15.0376 21.8484 14 21.8484C12.9624 21.8484 12.0726 22.5462 10.2931 23.9417L9.28019 24.736C6.11532 27.2179 4.53288 28.4589 3.26644 27.8445C2 27.2302 2 25.2216 2 21.2044V10.9827Z" stroke="white" stroke-width="2.5"/>
</svg>
